<?xml version="1.0" encoding="UTF-8"?>
<svg width="522px" height="120px" viewBox="0 0 522 120" version="1.1" xmlns="http://www.w3.org/2000/svg" xmlns:xlink="http://www.w3.org/1999/xlink">
    <title>Artboard</title>
    <g id="Artboard" stroke="none" stroke-width="1" fill="none" fill-rule="evenodd">
        <path d="M24.8,94 L24.8,78.1 C29.0666667,78.1 33.05,77.6333333 36.75,76.7 C40.45,75.7666667 43.6833333,74.3 46.45,72.3 C49.2166667,70.3 51.4,67.6833333 53,64.45 C54.6,61.2166667 55.4,57.3 55.4,52.7 C55.4,48.1 54.6,44.1833333 53,40.95 C51.4,37.7166667 49.2166667,35.1 46.45,33.1 C43.6833333,31.1 40.45,29.6333333 36.75,28.7 C33.05,27.7666667 29.0666667,27.3 24.8,27.3 L24.8,27.3 L3.5,27.3 L3.5,94 L24.8,94 Z M16.1,86 L13.5,86 L13.5,35.3 L24.8,35.3 C27.8,35.3 30.5833333,35.65 33.15,36.35 C35.7166667,37.05 37.9333333,38.1 39.8,39.5 C41.6666667,40.9 43.1166667,42.7 44.15,44.9 C45.1833333,47.1 45.7,49.7 45.7,52.7 C45.7,55.7 45.1833333,58.3 44.15,60.5 C43.1166667,62.7 41.6666667,64.5 39.8,65.9 C37.9333333,67.3 35.7166667,68.35 33.15,69.05 C30.5833333,69.75 27.8,70.1 24.8,70.1 L24.8,70.1 L16.1,70.1 L16.1,86 Z M24.8,67.7 C27.2,67.7 29.4833333,67.45 31.65,66.95 C33.8166667,66.45 35.7333333,65.6333333 37.4,64.5 C39.0666667,63.3666667 40.4,61.8333333 41.4,59.9 C42.4,57.9666667 42.9,55.5666667 42.9,52.7 C42.9,49.8333333 42.4,47.4333333 41.4,45.5 C40.4,43.5666667 39.0666667,42.0333333 37.4,40.9 C35.7333333,39.7666667 33.8166667,38.95 31.65,38.45 C29.4833333,37.95 27.2,37.7 24.8,37.7 L24.8,37.7 L16.1,37.7 L16.1,67.7 L24.8,67.7 Z M25.7,60.1 L24.8,60.1 L24.8,45.3 L25.7,45.3 C28.5,45.3 30.5166667,45.95 31.75,47.25 C32.9833333,48.55 33.6,50.3666667 33.6,52.7 C33.6,55.0333333 32.9833333,56.85 31.75,58.15 C30.5166667,59.45 28.5,60.1 25.7,60.1 L25.7,60.1 Z M81.7,94 L81.7,77.1 L91.7,94 L116.7,94 L104.2,72 C105.866667,70.8 107.366667,69.3333333 108.7,67.6 C109.833333,66.0666667 110.866667,64.1333333 111.8,61.8 C112.733333,59.4666667 113.2,56.6333333 113.2,53.3 C113.2,49.1 112.45,45.3833333 110.95,42.15 C109.45,38.9166667 107.366667,36.2 104.7,34 C102.033333,31.8 98.8833333,30.1333333 95.25,29 C91.6166667,27.8666667 87.6666667,27.3 83.4,27.3 L83.4,27.3 L60.4,27.3 L60.4,94 L81.7,94 Z M73,86 L70.4,86 L70.4,35.3 L81.2,35.3 C84.3333333,35.3 87.2333333,35.6833333 89.9,36.45 C92.5666667,37.2166667 94.8833333,38.35 96.85,39.85 C98.8166667,41.35 100.366667,43.2 101.5,45.4 C102.633333,47.6 103.2,50.1666667 103.2,53.1 C103.2,57.3 102.133333,60.7166667 100,63.35 C97.8666667,65.9833333 95,67.9333333 91.4,69.2 L91.4,69.2 L101.4,86 L98.3,86 L88.8,70 C86.3333333,70.5333333 83.8,70.8 81.2,70.8 L81.2,70.8 L73,70.8 L73,86 Z M81.2,68.4 C87.2666667,68.4 92.0166667,67.0833333 95.45,64.45 C98.8833333,61.8166667 100.6,58.0333333 100.6,53.1 C100.6,48.1666667 98.8833333,44.3666667 95.45,41.7 C92.0166667,39.0333333 87.2666667,37.7 81.2,37.7 L81.2,37.7 L73,37.7 L73,68.4 L81.2,68.4 Z M82.8,60.1 L81.7,60.1 L81.7,45.3 L82.8,45.3 C85.3333333,45.3 87.4833333,45.8666667 89.25,47 C91.0166667,48.1333333 91.9,50.0333333 91.9,52.7 C91.9,55.3666667 91.0166667,57.2666667 89.25,58.4 C87.4833333,59.5333333 85.3333333,60.1 82.8,60.1 L82.8,60.1 Z M152.2,95.7 C157,95.7 161.533333,94.7833333 165.8,92.95 C170.066667,91.1166667 173.783333,88.6166667 176.95,85.45 C180.116667,82.2833333 182.616667,78.5666667 184.45,74.3 C186.283333,70.0333333 187.2,65.5 187.2,60.7 C187.2,55.9 186.283333,51.3666667 184.45,47.1 C182.616667,42.8333333 180.116667,39.1166667 176.95,35.95 C173.783333,32.7833333 170.066667,30.2833333 165.8,28.45 C161.533333,26.6166667 157,25.7 152.2,25.7 C147.4,25.7 142.866667,26.6166667 138.6,28.45 C134.333333,30.2833333 130.616667,32.7833333 127.45,35.95 C124.283333,39.1166667 121.783333,42.8333333 119.95,47.1 C118.116667,51.3666667 117.2,55.9 117.2,60.7 C117.2,65.5 118.116667,70.0333333 119.95,74.3 C121.783333,78.5666667 124.283333,82.2833333 127.45,85.45 C130.616667,88.6166667 134.333333,91.1166667 138.6,92.95 C142.866667,94.7833333 147.4,95.7 152.2,95.7 Z M152.2,86.3 C148.666667,86.3 145.35,85.6333333 142.25,84.3 C139.15,82.9666667 136.433333,81.1333333 134.1,78.8 C131.766667,76.4666667 129.933333,73.75 128.6,70.65 C127.266667,67.55 126.6,64.2333333 126.6,60.7 C126.6,57.1666667 127.266667,53.85 128.6,50.75 C129.933333,47.65 131.766667,44.9333333 134.1,42.6 C136.433333,40.2666667 139.15,38.4333333 142.25,37.1 C145.35,35.7666667 148.666667,35.1 152.2,35.1 C155.733333,35.1 159.05,35.7666667 162.15,37.1 C165.25,38.4333333 167.966667,40.2666667 170.3,42.6 C172.633333,44.9333333 174.466667,47.65 175.8,50.75 C177.133333,53.85 177.8,57.1666667 177.8,60.7 C177.8,64.2333333 177.133333,67.55 175.8,70.65 C174.466667,73.75 172.633333,76.4666667 170.3,78.8 C167.966667,81.1333333 165.25,82.9666667 162.15,84.3 C159.05,85.6333333 155.733333,86.3 152.2,86.3 Z M152.2,83.7 C155.4,83.7 158.383333,83.1 161.15,81.9 C163.916667,80.7 166.35,79.05 168.45,76.95 C170.55,74.85 172.2,72.4166667 173.4,69.65 C174.6,66.8833333 175.2,63.9 175.2,60.7 C175.2,57.5 174.6,54.5166667 173.4,51.75 C172.2,48.9833333 170.55,46.55 168.45,44.45 C166.35,42.35 163.916667,40.7 161.15,39.5 C158.383333,38.3 155.4,37.7 152.2,37.7 C149,37.7 146.016667,38.3 143.25,39.5 C140.483333,40.7 138.05,42.35 135.95,44.45 C133.85,46.55 132.2,48.9833333 131,51.75 C129.8,54.5166667 129.2,57.5 129.2,60.7 C129.2,63.9 129.8,66.8833333 131,69.65 C132.2,72.4166667 133.85,74.85 135.95,76.95 C138.05,79.05 140.483333,80.7 143.25,81.9 C146.016667,83.1 149,83.7 152.2,83.7 Z M152.2,74.7 C150.266667,74.7 148.45,74.3333333 146.75,73.6 C145.05,72.8666667 143.566667,71.8666667 142.3,70.6 C141.033333,69.3333333 140.033333,67.85 139.3,66.15 C138.566667,64.45 138.2,62.6333333 138.2,60.7 C138.2,58.7666667 138.566667,56.95 139.3,55.25 C140.033333,53.55 141.033333,52.0666667 142.3,50.8 C143.566667,49.5333333 145.05,48.5333333 146.75,47.8 C148.45,47.0666667 150.266667,46.7 152.2,46.7 C154.133333,46.7 155.95,47.0666667 157.65,47.8 C159.35,48.5333333 160.833333,49.5333333 162.1,50.8 C163.366667,52.0666667 164.366667,53.55 165.1,55.25 C165.833333,56.95 166.2,58.7666667 166.2,60.7 C166.2,62.6333333 165.833333,64.45 165.1,66.15 C164.366667,67.85 163.366667,69.3333333 162.1,70.6 C160.833333,71.8666667 159.35,72.8666667 157.65,73.6 C155.95,74.3333333 154.133333,74.7 152.2,74.7 Z M226.2,95.7 C229.466667,95.7 232.633333,95.2666667 235.7,94.4 C238.766667,93.5333333 241.616667,92.3 244.25,90.7 C246.883333,89.1 249.266667,87.1833333 251.4,84.95 C253.533333,82.7166667 255.366667,80.2333333 256.9,77.5 L256.9,77.5 L256.9,55.3 L231.2,55.3 L231.2,69.3 L237.2,69.3 C235.866667,70.9666667 234.266667,72.2833333 232.4,73.25 C230.533333,74.2166667 228.466667,74.7 226.2,74.7 C224.266667,74.7 222.45,74.35 220.75,73.65 C219.05,72.95 217.566667,71.9833333 216.3,70.75 C215.033333,69.5166667 214.033333,68.0333333 213.3,66.3 C212.566667,64.5666667 212.2,62.7 212.2,60.7 C212.2,58.7 212.533333,56.8333333 213.2,55.1 C213.866667,53.3666667 214.783333,51.8833333 215.95,50.65 C217.116667,49.4166667 218.5,48.45 220.1,47.75 C221.7,47.05 223.466667,46.7 225.4,46.7 C227.133333,46.7 228.9,46.9833333 230.7,47.55 C232.5,48.1166667 234,48.9333333 235.2,50 L235.2,50 L247.3,32.8 C245.833333,31.5333333 244,30.3666667 241.8,29.3 C239.933333,28.3666667 237.633333,27.5333333 234.9,26.8 C232.166667,26.0666667 228.933333,25.7 225.2,25.7 C220.4,25.7 215.916667,26.6166667 211.75,28.45 C207.583333,30.2833333 203.983333,32.7833333 200.95,35.95 C197.916667,39.1166667 195.533333,42.8333333 193.8,47.1 C192.066667,51.3666667 191.2,55.9 191.2,60.7 C191.2,65.6333333 192.116667,70.2333333 193.95,74.5 C195.783333,78.7666667 198.283333,82.4666667 201.45,85.6 C204.616667,88.7333333 208.333333,91.2 212.6,93 C216.866667,94.8 221.4,95.7 226.2,95.7 Z M226.2,86.3 C222.666667,86.3 219.35,85.6666667 216.25,84.4 C213.15,83.1333333 210.433333,81.3833333 208.1,79.15 C205.766667,76.9166667 203.933333,74.2333333 202.6,71.1 C201.266667,67.9666667 200.6,64.5 200.6,60.7 C200.6,56.9 201.25,53.4333333 202.55,50.3 C203.85,47.1666667 205.633333,44.4833333 207.9,42.25 C210.166667,40.0166667 212.833333,38.2666667 215.9,37 C218.966667,35.7333333 222.266667,35.1 225.8,35.1 C227.333333,35.1 228.733333,35.2 230,35.4 C231.266667,35.6 232.366667,35.8333333 233.3,36.1 C234.366667,36.3666667 235.333333,36.7 236.2,37.1 L236.2,37.1 L234.6,39.4 C233.8,39.1333333 232.933333,38.8666667 232,38.6 C231.2,38.4 230.266667,38.2 229.2,38 C228.133333,37.8 227,37.7 225.8,37.7 C222.6,37.7 219.633333,38.25 216.9,39.35 C214.166667,40.45 211.783333,42.0166667 209.75,44.05 C207.716667,46.0833333 206.116667,48.5166667 204.95,51.35 C203.783333,54.1833333 203.2,57.3 203.2,60.7 C203.2,64.1 203.8,67.2166667 205,70.05 C206.2,72.8833333 207.85,75.3166667 209.95,77.35 C212.05,79.3833333 214.483333,80.95 217.25,82.05 C220.016667,83.15 223,83.7 226.2,83.7 C230.2,83.7 233.85,82.8 237.15,81 C240.45,79.2 243.133333,76.7666667 245.2,73.7 L245.2,73.7 L245.2,63.7 L237.2,63.7 L237.2,61.3 L247.8,61.3 L247.8,74.4 C245.466667,78 242.433333,80.8833333 238.7,83.05 C234.966667,85.2166667 230.8,86.3 226.2,86.3 Z M283.3,94 L283.3,77.3 L261.9,77.3 L261.9,94 L283.3,94 Z M277.3,86.8 L267.9,86.8 L267.9,84.5 L277.3,84.5 L277.3,86.8 Z M344.3,95.7 C348.166667,95.7 351.6,95.3 354.6,94.5 C357.6,93.7 360.166667,92.8333333 362.3,91.9 C364.766667,90.7666667 366.9,89.4666667 368.7,88 L368.7,88 L358.2,69.5 C357.2,70.5 356.033333,71.3666667 354.7,72.1 C353.566667,72.7666667 352.166667,73.3666667 350.5,73.9 C348.833333,74.4333333 346.933333,74.7 344.8,74.7 C342.666667,74.7 340.7,74.3333333 338.9,73.6 C337.1,72.8666667 335.533333,71.8666667 334.2,70.6 C332.866667,69.3333333 331.816667,67.85 331.05,66.15 C330.283333,64.45 329.9,62.6333333 329.9,60.7 C329.9,58.7666667 330.266667,56.95 331,55.25 C331.733333,53.55 332.75,52.0666667 334.05,50.8 C335.35,49.5333333 336.866667,48.5333333 338.6,47.8 C340.333333,47.0666667 342.233333,46.7 344.3,46.7 C346.3,46.7 348.083333,46.95 349.65,47.45 C351.216667,47.95 352.566667,48.4666667 353.7,49 C354.966667,49.7333333 356.133333,50.5 357.2,51.3 L357.2,51.3 L367.7,32.8 C365.9,31.5333333 363.766667,30.3666667 361.3,29.3 C359.166667,28.3666667 356.616667,27.5333333 353.65,26.8 C350.683333,26.0666667 347.3,25.7 343.5,25.7 C338.7,25.7 334.166667,26.5166667 329.9,28.15 C325.633333,29.7833333 321.9,32.1333333 318.7,35.2 C315.5,38.2666667 312.966667,41.95 311.1,46.25 C309.233333,50.55 308.3,55.3666667 308.3,60.7 C308.3,65.9 309.2,70.65 311,74.95 C312.8,79.25 315.3,82.9333333 318.5,86 C321.7,89.0666667 325.5,91.45 329.9,93.15 C334.3,94.85 339.1,95.7 344.3,95.7 Z M344.6,86.3 C341,86.3 337.6,85.7 334.4,84.5 C331.2,83.3 328.4,81.5833333 326,79.35 C323.6,77.1166667 321.716667,74.4333333 320.35,71.3 C318.983333,68.1666667 318.3,64.6333333 318.3,60.7 C318.3,56.8333333 319.016667,53.3166667 320.45,50.15 C321.883333,46.9833333 323.783333,44.2833333 326.15,42.05 C328.516667,39.8166667 331.25,38.1 334.35,36.9 C337.45,35.7 340.7,35.1 344.1,35.1 C346.033333,35.1 347.733333,35.2333333 349.2,35.5 C350.666667,35.7666667 351.966667,36.0666667 353.1,36.4 C354.3,36.8 355.433333,37.2333333 356.5,37.7 L356.5,37.7 L355.1,40.1 C354.3,39.6333333 353.333333,39.2333333 352.2,38.9 C351.266667,38.5666667 350.116667,38.2833333 348.75,38.05 C347.383333,37.8166667 345.833333,37.7 344.1,37.7 C340.566667,37.7 337.366667,38.3 334.5,39.5 C331.633333,40.7 329.2,42.3333333 327.2,44.4 C325.2,46.4666667 323.65,48.9 322.55,51.7 C321.45,54.5 320.9,57.5 320.9,60.7 C320.9,63.9 321.45,66.9 322.55,69.7 C323.65,72.5 325.216667,74.9333333 327.25,77 C329.283333,79.0666667 331.766667,80.7 334.7,81.9 C337.633333,83.1 340.933333,83.7 344.6,83.7 C346.466667,83.7 348.1,83.55 349.5,83.25 C350.9,82.95 352.1,82.6 353.1,82.2 C354.233333,81.8 355.233333,81.3 356.1,80.7 L356.1,80.7 L357.5,83.1 C356.5,83.7 355.366667,84.2333333 354.1,84.7 C352.966667,85.1 351.6,85.4666667 350,85.8 C348.4,86.1333333 346.6,86.3 344.6,86.3 Z M386.7,94 L388.9,88 L409.1,88 L411.3,94 L432.3,94 L407,27.3 L391,27.3 L365.7,94 L386.7,94 Z M380.6,86 L377.8,86 L397.1,35.3 L400.9,35.3 L420.2,86 L417.4,86 L415.5,81 L382.5,81 L380.6,86 Z M414.6,78.6 L399,37.7 L383.4,78.6 L414.6,78.6 Z M403.5,73.3 L394.5,73.3 L399,61.6 L403.5,73.3 Z M455.1,94 L455.1,68.8 L472.8,68.8 L472.8,52.2 L455.1,52.2 L455.1,44.8 L473.1,44.8 L473.1,27.3 L433.8,27.3 L433.8,94 L455.1,94 Z M446.4,86 L443.8,86 L443.8,35.3 L466.4,35.3 L466.4,37.7 L446.4,37.7 L446.4,59.3 L465.4,59.3 L465.4,61.7 L446.4,61.7 L446.4,86 Z M503.6,23.4 L513.9,7.9 L500.7,7.9 L492.4,23.4 L503.6,23.4 Z M501.3,19.4 L499.2,19.4 L503.2,11.9 L506.2,11.9 L501.3,19.4 Z M518.6,94 L518.6,76.5 L499.9,76.5 L499.9,68.8 L517.6,68.8 L517.6,52.2 L499.9,52.2 L499.9,44.8 L517.9,44.8 L517.9,27.3 L478.6,27.3 L478.6,94 L518.6,94 Z M511.2,86 L488.6,86 L488.6,35.3 L511.2,35.3 L511.2,37.7 L491.2,37.7 L491.2,59.3 L510.2,59.3 L510.2,61.7 L491.2,61.7 L491.2,83.6 L511.2,83.6 L511.2,86 Z" id="Prog.Café" fill="#7C2100" fill-rule="nonzero"></path>
    </g>
</svg>